<svg width="561" height="608" viewBox="0 0 561 608" fill="none" xmlns="http://www.w3.org/2000/svg">
<path fill-rule="evenodd" clip-rule="evenodd" d="M464.698 210.056C491.595 253.574 520.819 301.181 510.891 352.121C500.558 405.135 457.293 447.816 411.857 481.17C366.858 514.204 313.466 535.749 257.768 537.935C202.641 540.098 148.988 523.734 105.54 493.19C63.5278 463.656 23.8918 422.217 21.2493 371.666C18.749 323.835 77.0931 292.149 92.6108 245.866C107.775 200.638 70.5446 139.34 109.355 108.881C147.929 78.6069 202.75 118.208 251.459 121.198C292.006 123.687 333.702 109.591 370.462 124.909C411.344 141.945 442.126 173.535 464.698 210.056Z" fill="#7200D6" fill-opacity="0.5"/>
</svg>
