<svg width="102" height="27" viewBox="0 0 102 27" fill="none" xmlns="http://www.w3.org/2000/svg">
<path d="M19.0818 1.16554V17.1957C19.0818 20.1655 18.2985 22.4222 16.7317 23.9655C15.1883 25.4855 13.0135 26.2455 10.2074 26.2455C7.19077 26.2455 4.79385 25.4154 3.01662 23.7551C1.23938 22.0948 0.350769 19.6745 0.350769 16.4942H8.03262C8.03262 17.4997 8.19631 18.2129 8.52369 18.6338C8.85108 19.0314 9.29538 19.2302 9.85662 19.2302C10.3243 19.2302 10.6868 19.0782 10.944 18.7742C11.2012 18.4702 11.3298 17.944 11.3298 17.1957V1.16554H19.0818ZM34.5453 26.2455C32.2068 26.2455 30.0554 25.696 28.0911 24.5969C26.1502 23.4978 24.6068 21.9778 23.461 20.0369C22.3151 18.096 21.7422 15.9095 21.7422 13.4775C21.7422 11.0455 22.3151 8.85908 23.461 6.91815C24.6068 4.97723 26.1502 3.46892 28.0911 2.39323C30.0554 1.29415 32.2068 0.744614 34.5453 0.744614C36.8838 0.744614 39.0234 1.29415 40.9644 2.39323C42.9053 3.46892 44.437 4.97723 45.5594 6.91815C46.7053 8.85908 47.2782 11.0455 47.2782 13.4775C47.2782 15.9095 46.7053 18.096 45.5594 20.0369C44.437 21.9778 42.8936 23.4978 40.9293 24.5969C38.9884 25.696 36.8604 26.2455 34.5453 26.2455ZM34.5453 18.9846C36.0887 18.9846 37.2813 18.4935 38.1231 17.5114C38.965 16.5058 39.3859 15.1612 39.3859 13.4775C39.3859 11.7705 38.965 10.4258 38.1231 9.44369C37.2813 8.43815 36.0887 7.93538 34.5453 7.93538C32.9785 7.93538 31.7742 8.43815 30.9324 9.44369C30.0905 10.4258 29.6696 11.7705 29.6696 13.4775C29.6696 15.1612 30.0905 16.5058 30.9324 17.5114C31.7742 18.4935 32.9785 18.9846 34.5453 18.9846ZM65.3108 9.65415C65.0068 9.16308 64.5742 8.78892 64.0129 8.53169C63.4517 8.25108 62.7735 8.11077 61.9785 8.11077C60.4818 8.11077 59.3243 8.60184 58.5058 9.584C57.6874 10.5428 57.2782 11.864 57.2782 13.5477C57.2782 15.4886 57.7342 16.9385 58.6461 17.8972C59.5581 18.856 60.9612 19.3354 62.8554 19.3354C64.656 19.3354 66.1058 18.6105 67.2049 17.1606H60.9963V11.6535H73.6591V19.4406C72.5834 21.288 71.0985 22.8782 69.2043 24.2111C67.3102 25.5206 64.9132 26.1754 62.0135 26.1754C59.4412 26.1754 57.1963 25.6492 55.2788 24.5969C53.3846 23.5212 51.9231 22.0246 50.8941 20.1071C49.8886 18.1895 49.3858 16.0031 49.3858 13.5477C49.3858 11.0923 49.8886 8.90585 50.8941 6.98831C51.9231 5.07077 53.3846 3.58585 55.2788 2.53354C57.1729 1.45784 59.3945 0.919999 61.9434 0.919999C65.1938 0.919999 67.8363 1.70338 69.8708 3.27015C71.9286 4.83692 73.1446 6.96492 73.5188 9.65415H65.3108ZM92.3885 22.2468H84.1103L82.8827 26H74.7097L83.7947 1.16554H92.7743L101.824 26H93.6162L92.3885 22.2468ZM90.4943 16.3889L88.2494 9.47877L86.0045 16.3889H90.4943Z" fill="white"/>
</svg>
