<svg width="33" height="31" viewBox="0 0 33 31" fill="none" xmlns="http://www.w3.org/2000/svg">
<path d="M2.0625 28.7857C2.0625 30.0105 2.98418 31 4.125 31H28.875C30.0158 31 30.9375 30.0105 30.9375 28.7857V8.85714H2.0625V28.7857ZM12.375 14.1161C12.375 13.6594 12.723 13.2857 13.1484 13.2857H19.8516C20.277 13.2857 20.625 13.6594 20.625 14.1161V14.6696C20.625 15.1263 20.277 15.5 19.8516 15.5H13.1484C12.723 15.5 12.375 15.1263 12.375 14.6696V14.1161ZM30.9375 0H2.0625C0.92168 0 0 0.989509 0 2.21429V5.53571C0 6.14464 0.464062 6.64286 1.03125 6.64286H31.9688C32.5359 6.64286 33 6.14464 33 5.53571V2.21429C33 0.989509 32.0783 0 30.9375 0Z" fill="white"/>
</svg>
